<?xml version="1.0" encoding="UTF-8" standalone="no"?>
<!-- Created with Inkscape (http://www.inkscape.org/) -->

<svg
   width="73.819016mm"
   height="14.77256mm"
   viewBox="0 0 73.819016 14.77256"
   version="1.1"
   id="svg5"
   inkscape:version="1.1.2 (0a00cf5339, 2022-02-04)"
   xmlns:inkscape="http://www.inkscape.org/namespaces/inkscape"
   xmlns:sodipodi="http://sodipodi.sourceforge.net/DTD/sodipodi-0.dtd"
   xmlns="http://www.w3.org/2000/svg"
   xmlns:svg="http://www.w3.org/2000/svg">
  <sodipodi:namedview
     id="namedview7"
     pagecolor="#ffffff"
     bordercolor="#666666"
     borderopacity="1.0"
     inkscape:pageshadow="2"
     inkscape:pageopacity="0.0"
     inkscape:pagecheckerboard="0"
     inkscape:document-units="mm"
     showgrid="false"
     inkscape:zoom="2.1703346"
     inkscape:cx="199.73879"
     inkscape:cy="29.258161"
     inkscape:window-width="1440"
     inkscape:window-height="836"
     inkscape:window-x="0"
     inkscape:window-y="0"
     inkscape:window-maximized="1"
     inkscape:current-layer="g64"
     inkscape:snap-global="true"
     fit-margin-top="0"
     fit-margin-left="0"
     fit-margin-right="0"
     fit-margin-bottom="0"
     inkscape:snap-nodes="true" />
  <defs
     id="defs2" />
  <g
     inkscape:label="Layer 1"
     inkscape:groupmode="layer"
     id="layer1"
     transform="translate(-50.92054,-118.36223)">
    <g
       style="fill:none"
       id="g64"
       transform="matrix(0.26458333,0,0,0.26458333,50.92054,118.36223)">
      <path
         fill-rule="evenodd"
         clip-rule="evenodd"
         d="m 67.4385,43.4948 c 0.021,0.0094 0.0421,0.0187 0.0628,0.0299 l 0.0022,-0.0109 c -0.0198,-0.0066 -0.0392,-0.014 -0.0589,-0.0215 -0.0194,-0.0075 -0.039,-0.0151 -0.0591,-0.0222 0.0175,0.009 0.0352,0.0169 0.053,0.0247 z M 47.2746,10.1639 C 41.1605,6.90455 33.781,6.03879 26.6703,8.34983 12.786,12.8624 5.19066,27.7744 9.70217,41.6565 10.6832,44.6755 12.156,47.3972 14.003,49.7617 8.17877,46.657 3.50263,41.3801 1.30119,34.6067 -3.21032,20.7256 4.38612,5.8126 18.2694,1.30109 c 10.864,-3.53038 22.3579,0.3542 29.0052,8.86281 z"
         fill="#e78200"
         id="path25"
         style="fill:#4f46e5;fill-opacity:1" />
      <path
         fill-rule="evenodd"
         clip-rule="evenodd"
         d="m 71.9295,50.8833 c 0.0165,0.0074 0.0331,0.0149 0.0494,0.0236 L 71.98,50.8982 c -0.0157,-0.005 -0.0311,-0.0112 -0.0467,-0.0175 -0.015,-0.006 -0.0302,-0.0121 -0.0462,-0.0175 0.0138,0.0072 0.028,0.0136 0.0424,0.0201 z M 55.992,24.534 C 51.1604,21.9593 45.329,21.2754 39.7096,23.1 28.7342,26.6637 22.7305,38.4503 26.2942,49.4235 c 0.7756,2.3876 1.9403,4.54 3.401,6.4098 C 25.0902,53.379 21.3934,49.2069 19.6543,43.8516 16.0895,32.8795 22.0943,21.0919 33.0686,17.5281 41.6555,14.7397 50.739,17.81 55.992,24.534 Z"
         fill="#e78200"
         id="path27"
         style="fill:#4f46e5;fill-opacity:1" />
      <path
         fill-rule="evenodd"
         clip-rule="evenodd"
         d="m 67.8456,50.9462 c 0.0101,0.0044 0.0204,0.0088 0.0307,0.0143 V 50.955 l -0.0547,-0.0197 c 0.0078,0.0039 0.0159,0.0074 0.024,0.0109 z M 58.245,35.0768 c -2.9114,-1.5517 -6.4253,-1.9638 -9.8108,-0.8637 -6.6104,2.1481 -10.2266,9.2494 -8.0785,15.8587 0.4671,1.4373 1.1683,2.733 2.0476,3.8587 -2.7728,-1.478 -4.9991,-3.9902 -6.0475,-7.2148 -2.1481,-6.6093 1.4681,-13.7105 8.0785,-15.8586 5.1729,-1.6809 10.6457,0.1686 13.8107,4.2197 z"
         fill="#e78200"
         id="path29"
         style="fill:#4f46e5;fill-opacity:1" />
      <path
         d="m 54.776,51.9328 c 2.1627,0 3.916,-1.7532 3.916,-3.916 0,-2.1627 -1.7533,-3.916 -3.916,-3.916 -2.1628,0 -3.916,1.7533 -3.916,3.916 0,2.1628 1.7532,3.916 3.916,3.916 z"
         fill="#e78200"
         id="path31"
         style="fill:#4f46e5;fill-opacity:1" />
      <path
         d="m 85.008,45.432 c -2.016,0 -3.824,-0.336 -5.424,-1.008 -1.6,-0.704 -2.864,-1.664 -3.792,-2.88 -0.928,-1.248 -1.44,-2.672 -1.536,-4.272 h 4.512 c 0.128,1.312 0.736,2.384 1.824,3.216 1.12,0.832 2.576,1.248 4.368,1.248 1.664,0 2.976,-0.368 3.936,-1.104 0.96,-0.736 1.44,-1.664 1.44,-2.784 0,-1.152 -0.512,-2 -1.536,-2.544 -1.024,-0.576 -2.608,-1.136 -4.752,-1.68 -1.952,-0.512 -3.552,-1.024 -4.8,-1.536 -1.216,-0.544 -2.272,-1.328 -3.168,-2.352 -0.864,-1.056 -1.296,-2.432 -1.296,-4.128 0,-1.344 0.4,-2.576 1.2,-3.696 0.8,-1.12 1.936,-2 3.408,-2.64 1.472,-0.672 3.152,-1.008 5.04,-1.008 2.912,0 5.264,0.736 7.056,2.208 1.792,1.472 2.752,3.488 2.88,6.048 H 90 c -0.096,-1.376 -0.656,-2.48 -1.68,-3.312 -0.992,-0.832 -2.336,-1.248 -4.032,-1.248 -1.568,0 -2.816,0.336 -3.744,1.008 -0.928,0.672 -1.392,1.552 -1.392,2.64 0,0.864 0.272,1.584 0.816,2.16 0.576,0.544 1.28,0.992 2.112,1.344 0.864,0.32 2.048,0.688 3.552,1.104 1.888,0.512 3.424,1.024 4.608,1.536 1.184,0.48 2.192,1.216 3.024,2.208 0.864,0.992 1.312,2.288 1.344,3.888 0,1.44 -0.4,2.736 -1.2,3.888 -0.8,1.152 -1.936,2.064 -3.408,2.736 -1.44,0.64 -3.104,0.96 -4.992,0.96 z"
         fill="#111827"
         id="path33"
         style="fill:#0f172a;fill-opacity:1" />
      <path
         d="M 124.102,18.696 V 45 h -4.368 v -3.888 c -0.832,1.344 -2,2.4 -3.504,3.168 -1.472,0.736 -3.104,1.104 -4.896,1.104 -2.048,0 -3.888,-0.416 -5.52,-1.248 -1.632,-0.864 -2.928,-2.144 -3.888,-3.84 -0.928,-1.696 -1.392,-3.76 -1.392,-6.192 V 18.696 h 4.32 v 14.832 c 0,2.592 0.656,4.592 1.968,6 1.312,1.376 3.104,2.064 5.376,2.064 2.336,0 4.176,-0.72 5.52,-2.16 1.344,-1.44 2.016,-3.536 2.016,-6.288 V 18.696 Z"
         fill="#111827"
         id="path35"
         style="fill:#0f172a;fill-opacity:1" />
      <path
         d="m 163.109,18.216 c 2.048,0 3.872,0.432 5.472,1.296 1.6,0.832 2.864,2.096 3.792,3.792 0.928,1.696 1.392,3.76 1.392,6.192 V 45 h -4.32 V 30.12 c 0,-2.624 -0.656,-4.624 -1.968,-6 -1.28,-1.408 -3.024,-2.112 -5.232,-2.112 -2.272,0 -4.08,0.736 -5.424,2.208 -1.344,1.44 -2.016,3.536 -2.016,6.288 V 45 h -4.32 V 30.12 c 0,-2.624 -0.656,-4.624 -1.968,-6 -1.28,-1.408 -3.024,-2.112 -5.232,-2.112 -2.272,0 -4.08,0.736 -5.424,2.208 -1.344,1.44 -2.016,3.536 -2.016,6.288 V 45 h -4.368 V 18.696 h 4.368 v 3.792 c 0.864,-1.376 2.016,-2.432 3.456,-3.168 1.472,-0.736 3.088,-1.104 4.848,-1.104 2.208,0 4.16,0.496 5.856,1.488 1.696,0.992 2.96,2.448 3.792,4.368 0.736,-1.856 1.952,-3.296 3.648,-4.32 1.696,-1.024 3.584,-1.536 5.664,-1.536 z"
         fill="#111827"
         id="path37"
         style="fill:#0f172a;fill-opacity:1" />
      <path
         d="m 212.562,18.216 c 2.048,0 3.872,0.432 5.472,1.296 1.6,0.832 2.864,2.096 3.792,3.792 0.928,1.696 1.392,3.76 1.392,6.192 V 45 h -4.32 V 30.12 c 0,-2.624 -0.656,-4.624 -1.968,-6 -1.28,-1.408 -3.024,-2.112 -5.232,-2.112 -2.272,0 -4.08,0.736 -5.424,2.208 -1.344,1.44 -2.016,3.536 -2.016,6.288 V 45 h -4.32 V 30.12 c 0,-2.624 -0.656,-4.624 -1.968,-6 -1.28,-1.408 -3.024,-2.112 -5.232,-2.112 -2.272,0 -4.08,0.736 -5.424,2.208 -1.344,1.44 -2.016,3.536 -2.016,6.288 V 45 H 180.93 V 18.696 h 4.368 v 3.792 c 0.864,-1.376 2.016,-2.432 3.456,-3.168 1.472,-0.736 3.088,-1.104 4.848,-1.104 2.208,0 4.16,0.496 5.856,1.488 1.696,0.992 2.96,2.448 3.792,4.368 0.736,-1.856 1.952,-3.296 3.648,-4.32 1.696,-1.024 3.584,-1.536 5.664,-1.536 z"
         fill="#111827"
         id="path39"
         style="fill:#0f172a;fill-opacity:1" />
      <path
         d="m 228.751,31.752 c 0,-2.688 0.544,-5.04 1.632,-7.056 1.088,-2.048 2.576,-3.632 4.464,-4.752 1.92,-1.12 4.048,-1.68 6.384,-1.68 2.304,0 4.304,0.496 6,1.488 1.696,0.992 2.96,2.24 3.792,3.744 v -4.8 h 4.416 V 45 h -4.416 v -4.896 c -0.864,1.536 -2.16,2.816 -3.888,3.84 -1.696,0.992 -3.68,1.488 -5.952,1.488 -2.336,0 -4.448,-0.576 -6.336,-1.728 -1.888,-1.152 -3.376,-2.768 -4.464,-4.848 -1.088,-2.08 -1.632,-4.448 -1.632,-7.104 z m 22.272,0.048 c 0,-1.984 -0.4,-3.712 -1.2,-5.184 -0.8,-1.472 -1.888,-2.592 -3.264,-3.36 -1.344,-0.8 -2.832,-1.2 -4.464,-1.2 -1.632,0 -3.12,0.384 -4.464,1.152 -1.344,0.768 -2.416,1.888 -3.216,3.36 -0.8,1.472 -1.2,3.2 -1.2,5.184 0,2.016 0.4,3.776 1.2,5.28 0.8,1.472 1.872,2.608 3.216,3.408 1.344,0.768 2.832,1.152 4.464,1.152 1.632,0 3.12,-0.384 4.464,-1.152 1.376,-0.8 2.464,-1.936 3.264,-3.408 0.8,-1.504 1.2,-3.248 1.2,-5.232 z"
         fill="#111827"
         id="path41"
         style="fill:#0f172a;fill-opacity:1" />
      <path
         d="m 265.077,14.424 c -0.832,0 -1.536,-0.288 -2.112,-0.864 -0.576,-0.576 -0.864,-1.28 -0.864,-2.112 0,-0.832 0.288,-1.53601 0.864,-2.11201 0.576,-0.57601 1.28,-0.86401 2.112,-0.86401 0.8,0 1.472,0.288 2.016,0.86401 0.576,0.576 0.864,1.28001 0.864,2.11201 0,0.832 -0.288,1.536 -0.864,2.112 -0.544,0.576 -1.216,0.864 -2.016,0.864 z m 2.112,4.272 V 45 h -4.368 V 18.696 Z"
         fill="#111827"
         id="path43"
         style="fill:#0f172a;fill-opacity:1" />
      <path
         d="M 279.001,9.47999 V 45 h -4.368 V 9.47999 Z"
         fill="#111827"
         id="path45"
         style="fill:#0f172a;fill-opacity:1" />
    </g>
  </g>
</svg>
