<?xml version="1.0" encoding="UTF-8" standalone="no"?>
<svg
   width="71.980003"
   height="55.833298"
   viewBox="0 0 71.980003 55.833298"
   fill="none"
   version="1.1"
   id="svg10"
   sodipodi:docname="logo-icon.svg"
   inkscape:version="1.1.2 (0a00cf5339, 2022-02-04)"
   xmlns:inkscape="http://www.inkscape.org/namespaces/inkscape"
   xmlns:sodipodi="http://sodipodi.sourceforge.net/DTD/sodipodi-0.dtd"
   xmlns="http://www.w3.org/2000/svg"
   xmlns:svg="http://www.w3.org/2000/svg">
  <defs
     id="defs14" />
  <sodipodi:namedview
     id="namedview12"
     pagecolor="#ffffff"
     bordercolor="#666666"
     borderopacity="1.0"
     inkscape:pageshadow="2"
     inkscape:pageopacity="0.0"
     inkscape:pagecheckerboard="0"
     showgrid="false"
     fit-margin-top="0"
     fit-margin-left="0"
     fit-margin-right="0"
     fit-margin-bottom="0"
     inkscape:zoom="10"
     inkscape:cx="35.35"
     inkscape:cy="27.95"
     inkscape:window-width="1440"
     inkscape:window-height="836"
     inkscape:window-x="0"
     inkscape:window-y="0"
     inkscape:window-maximized="1"
     inkscape:current-layer="svg10" />
  <path
     fill-rule="evenodd"
     clip-rule="evenodd"
     d="m 67.4385,43.494799 c 0.021,0.0094 0.0421,0.0187 0.0628,0.0299 l 0.0022,-0.0109 c -0.0198,-0.0066 -0.0392,-0.014 -0.0589,-0.0215 -0.0194,-0.0075 -0.039,-0.0151 -0.0591,-0.0222 0.0175,0.009 0.0352,0.0169 0.053,0.0247 z M 47.2746,10.163899 C 41.1605,6.9045491 33.781,6.0387891 26.6703,8.3498291 12.786,12.862399 5.1906597,27.774399 9.7021697,41.656499 c 0.9810303,3.019 2.4538303,5.7407 4.3008303,8.1052 -5.8242303,-3.1047 -10.5003703,-8.3816 -12.7018103,-15.155 -4.51151,-13.8811 3.08493,-28.7940999 16.9682103,-33.3056099 10.864,-3.53038 22.3579,0.3542 29.0052,8.8628099 z"
     fill="#e78200"
     id="path2"
     style="fill:#2563eb;fill-opacity:1" />
  <path
     fill-rule="evenodd"
     clip-rule="evenodd"
     d="m 71.9296,50.883299 c 0.0164,0.0074 0.033,0.0149 0.0493,0.0236 l 0.0011,-0.0087 c -0.0156,-0.005 -0.031,-0.0112 -0.0467,-0.0175 -0.0149,-0.006 -0.0302,-0.0121 -0.0462,-0.0175 0.0138,0.0072 0.0281,0.0136 0.0425,0.0201 z M 55.992,24.533999 c -4.8315,-2.5747 -10.663,-3.2586 -16.2823,-1.434 -10.9754,3.5637 -16.9791,15.3503 -13.4154,26.3235 0.7756,2.3876 1.9402,4.54 3.4009,6.4098 -4.605,-2.4543 -8.3018,-6.6264 -10.0408,-11.9817 -3.5648,-10.9721 2.44,-22.7597 13.4143,-26.3235 8.5869,-2.7884 17.6704,0.2819 22.9233,7.0059 z"
     fill="#e78200"
     id="path4"
     style="fill:#2563eb;fill-opacity:1" />
  <path
     fill-rule="evenodd"
     clip-rule="evenodd"
     d="m 67.8456,50.946199 c 0.0101,0.0044 0.0204,0.0088 0.0307,0.0143 v -0.0055 l -0.0547,-0.0197 c 0.0078,0.0039 0.0159,0.0074 0.024,0.0109 z m -9.6006,-15.8694 c -2.9114,-1.5517 -6.4253,-1.9638 -9.8108,-0.8637 -6.6104,2.1481 -10.2266,9.2494 -8.0785,15.8587 0.4671,1.4373 1.1683,2.733 2.0476,3.8587 -2.7728,-1.478 -4.9991,-3.9902 -6.0475,-7.2148 -2.1481,-6.6093 1.4681,-13.7105 8.0785,-15.8586 5.1729,-1.6809 10.6457,0.1686 13.8107,4.2197 z"
     fill="#e78200"
     id="path6"
     style="fill:#2563eb;fill-opacity:1" />
  <path
     d="m 54.776,51.932799 c 2.1627,0 3.916,-1.7532 3.916,-3.916 0,-2.1627 -1.7533,-3.916 -3.916,-3.916 -2.1628,0 -3.916,1.7533 -3.916,3.916 0,2.1628 1.7532,3.916 3.916,3.916 z"
     fill="#e78200"
     id="path8"
     style="fill:#2563eb;fill-opacity:1" />
</svg>
